<?xml version="1.0" encoding="UTF-8"?>
<svg width="32px" height="32px" viewBox="0 0 32 32" version="1.1" xmlns="http://www.w3.org/2000/svg" xmlns:xlink="http://www.w3.org/1999/xlink">
    <!-- Generator: sketchtool 60.1 (101010) - https://sketch.com -->
    <title>F3177927-04F6-4602-B36D-1D2E7FE7E7E1</title>
    <desc>Created with sketchtool.</desc>
    <g id="Asset-Artboard-Page" stroke="none" stroke-width="1" fill="none" fill-rule="evenodd">
        <g id="Icon/Social/Facebook-Copy-Icon/Social/Instagram/Black" fill="#484A54">
            <g id="Logo/Social/instagram/White" transform="translate(6.400000, 6.400000)">
                <g id="Color/white">
                    <path d="M10.6183077,0.000807688826 C12.3193674,0.00405724704 12.6858208,0.0179725129 13.5580677,0.0577706062 C14.5798758,0.104375785 15.277734,0.266674606 15.8883648,0.504006621 C16.5196497,0.749303054 17.0550185,1.07755899 17.5887488,1.61125117 C18.122441,2.14498145 18.4506969,2.68035035 18.6960315,3.31163522 C18.9333254,3.92226595 19.0956242,4.62012421 19.1422294,5.64193228 C19.1889489,6.66587435 19.2,6.99279654 19.2,9.60001905 C19.2,12.2072035 19.1889489,12.5341256 19.1422294,13.5580677 C19.0956242,14.5798758 18.9333254,15.277734 18.6960315,15.8883648 C18.4506969,16.5196497 18.122441,17.0550185 17.5887488,17.5887488 C17.0550185,18.122441 16.5196497,18.4506969 15.8883648,18.6960315 C15.277734,18.9333254 14.5798758,19.0956242 13.5580677,19.1422294 C12.5341256,19.1889489 12.2072035,19.2 9.60001905,19.2 C6.99279654,19.2 6.66587435,19.1889489 5.64193228,19.1422294 C4.62012421,19.0956242 3.92226595,18.9333254 3.31163522,18.6960315 C2.68035035,18.4506969 2.14498145,18.122441 1.61125117,17.5887488 C1.07755899,17.0550185 0.749303054,16.5196497 0.504006621,15.8883648 C0.266674606,15.277734 0.104375785,14.5798758 0.0577706062,13.5580677 C0.0179725129,12.6858208 0.00405724704,12.3193674 0.000807688826,10.6183077 L0.000807688826,8.58171586 C0.00405724704,6.8806326 0.0179725129,6.51417923 0.0577706062,5.64193228 C0.104375785,4.62012421 0.266674606,3.92226595 0.504006621,3.31163522 C0.749303054,2.68035035 1.07755899,2.14498145 1.61125117,1.61125117 C2.14498145,1.07755899 2.68035035,0.749303054 3.31163522,0.504006621 C3.92226595,0.266674606 4.62012421,0.104375785 5.64193228,0.0577706062 C6.51417923,0.0179725129 6.8806326,0.00405724704 8.58171586,0.000807688826 Z M10.1527855,1.72991256 L9.04724482,1.72991256 C6.98578943,1.73144864 6.65518977,1.74307294 5.72077627,1.78570617 C4.78478573,1.8283863 4.27647297,1.9847785 3.93819481,2.11624855 C3.49009153,2.29039873 3.17029539,2.49842627 2.83437989,2.83437989 C2.49842627,3.17029539 2.29039873,3.49009153 2.11624855,3.93819481 C1.9847785,4.27647297 1.8283863,4.78478573 1.78570617,5.72077627 C1.74307294,6.65518977 1.73144864,6.98578943 1.72991256,9.04724482 L1.72991256,10.1527855 C1.73144864,12.214211 1.74307294,12.5448106 1.78570617,13.4792241 C1.8283863,14.4152147 1.9847785,14.9235274 2.11624855,15.2618056 C2.29039873,15.7099089 2.49846438,16.029705 2.83437989,16.3656205 C3.17029539,16.7015741 3.49009153,16.9096016 3.93819481,17.0837518 C4.27647297,17.2152219 4.78478573,17.3716141 5.72077627,17.4142942 C6.65508424,17.4569274 6.98561084,17.4685517 9.04720548,17.4700878 L10.1528255,17.4700878 C12.214395,17.4685517 12.5449513,17.4569274 13.4792241,17.4142942 C14.4152147,17.3716141 14.9235274,17.2152219 15.2618056,17.0837518 C15.7099089,16.9096016 16.029705,16.7015741 16.3656205,16.3656205 C16.7015741,16.029705 16.9096016,15.7099089 17.0837518,15.2618056 C17.2152219,14.9235274 17.3716141,14.4152147 17.4142942,13.4792241 C17.4569274,12.5448106 17.4685517,12.214211 17.4700878,10.1527855 L17.4700878,9.04724482 C17.4685517,6.98578943 17.4569274,6.65518977 17.4142942,5.72077627 C17.3716141,4.78478573 17.2152219,4.27647297 17.0837518,3.93819481 C16.9096016,3.49009153 16.7015741,3.17029539 16.3656205,2.83437989 C16.029705,2.49842627 15.7099089,2.29039873 15.2618056,2.11624855 C14.9235274,1.9847785 14.4152147,1.8283863 13.4792241,1.78570617 C12.5448106,1.74307294 12.214211,1.73144864 10.1527855,1.72991256 Z M9.60001905,4.67027321 C12.3226304,4.67027321 14.5297268,6.87736956 14.5297268,9.60001905 C14.5297268,12.3226304 12.3226304,14.5297268 9.60001905,14.5297268 C6.87736956,14.5297268 4.67027321,12.3226304 4.67027321,9.60001905 C4.67027321,6.87736956 6.87736956,4.67027321 9.60001905,4.67027321 Z M9.60001905,6.4 C7.83268055,6.4 6.4,7.83268055 6.4,9.60001905 C6.4,11.3673195 7.83268055,12.8 9.60001905,12.8 C11.3673195,12.8 12.8,11.3673195 12.8,9.60001905 C12.8,7.83268055 11.3673195,6.4 9.60001905,6.4 Z M14.7244923,3.32348671 C15.3607311,3.32348671 15.8765129,3.8392685 15.8765129,4.47550733 C15.8765129,5.11174617 15.3607311,5.62748985 14.7244923,5.62748985 C14.0882916,5.62748985 13.5725098,5.11174617 13.5725098,4.47550733 C13.5725098,3.8392685 14.0882916,3.32348671 14.7244923,3.32348671 Z" id="Mask"></path>
                </g>
            </g>
        </g>
    </g>
</svg>