<?xml version="1.0" encoding="UTF-8"?>
<svg width="32px" height="32px" viewBox="0 0 32 32" version="1.1" xmlns="http://www.w3.org/2000/svg" xmlns:xlink="http://www.w3.org/1999/xlink">
    <!-- Generator: sketchtool 60.1 (101010) - https://sketch.com -->
    <title>2A4DB520-E806-428D-B087-5571CBFDD7A2</title>
    <desc>Created with sketchtool.</desc>
    <g id="Asset-Artboard-Page" stroke="none" stroke-width="1" fill="none" fill-rule="evenodd">
        <g id="Icon/Social/Facebook-Icon/Social/Facebook/Black" fill="#484A54">
            <g id="Logo/Social/facebook" transform="translate(11.200000, 6.400000)">
                <g id="Color/white">
                    <path d="M2.43541997,19.199825 L2.43541997,10.1906736 L0.0532959282,10.1906736 L0.0532959282,6.94682603 L2.43541997,6.94682603 L2.43541997,4.1762875 C2.43541997,1.99913574 3.84256929,0 7.08484158,0 C8.39764416,0 9.36859295,0.125854005 9.36859295,0.125854005 L9.29192528,3.15492711 C9.29192528,3.15492711 8.3018971,3.14529989 7.22154809,3.14529989 C6.0522786,3.14529989 5.86498543,3.68407406 5.86498543,4.57853021 C5.86498543,5.28551815 5.86498543,3.07160791 5.86498543,6.94700107 L9.3848717,6.94700107 L9.2317114,10.1908487 L5.86498543,10.1908487 L5.86498543,19.2 L2.43541997,19.2 L2.43541997,19.199825 Z" id="Mask"></path>
                </g>
            </g>
        </g>
    </g>
</svg>