<?xml version="1.0" encoding="UTF-8"?>
<svg width="196px" height="39px" viewBox="0 0 196 39" version="1.1" xmlns="http://www.w3.org/2000/svg" xmlns:xlink="http://www.w3.org/1999/xlink">
    <!-- Generator: sketchtool 60.1 (101010) - https://sketch.com -->
    <title>4C4C68D5-EEC5-4D64-9B97-AC4B50FCA298</title>
    <desc>Created with sketchtool.</desc>
    <g id="Page-1" stroke="none" stroke-width="1" fill="none" fill-rule="evenodd">
        <g id="Homepage_Desktop" transform="translate(-68.000000, -40.000000)" fill-rule="nonzero">
            <g id="Desktop/Header" transform="translate(68.000000, 36.000000)">
                <g id="Group-2">
                    <g id="Group-13">
                        <g id="logo-3" transform="translate(0.000000, 4.000000)">
                            <path d="M62.7461803,31.9934986 C61.7782285,32.0474379 60.8208293,31.7645181 60.028462,31.1903891 C59.3562846,30.6781247 58.9727737,29.8582376 59.0032149,28.9985695 L59.0032149,13.4885173 C58.9871776,13.3554559 59.0317169,13.2222254 59.1239317,13.1274172 C59.2161465,13.0326089 59.3457325,12.986817 59.475154,13.0033053 L62.2091462,13.0033053 C62.5183476,13.0033053 62.6648115,13.1706198 62.6648115,13.4885173 L62.6648115,27.7939052 C62.6648115,28.4297002 62.9414655,28.7475978 63.5110472,28.7475978 C63.7524967,28.7578366 63.9940339,28.7296173 64.2270927,28.6639405 C64.552568,28.6639405 64.7315794,28.7643292 64.7478531,29.0654953 L64.9919596,31.1569262 C65.0156873,31.2802936 64.9863272,31.4081817 64.9114485,31.5076201 C64.8365699,31.6070585 64.7235,31.6683164 64.6013893,31.6756011 C64.0025538,31.8789705 63.3767997,31.986196 62.7461803,31.9934986 L62.7461803,31.9934986 Z" id="Path" fill="#484A54"></path>
                            <path d="M78.0919117,30.1975187 C75.1504843,32.6008271 70.8979172,32.6008271 67.9564898,30.1975187 C65.3478367,27.5932524 65.3478367,23.3968817 67.9564898,20.7926154 C70.9026885,18.4024615 75.145713,18.4024615 78.0919117,20.7926154 C80.6360294,23.4163483 80.6360294,27.5570807 78.0919117,30.1808137 L78.0919117,30.1975187 Z M70.6254842,27.9924614 C71.9964561,29.220596 74.08573,29.220596 75.456702,27.9924614 C76.695076,26.5843982 76.695076,24.4892608 75.456702,23.0811975 C74.08573,21.853063 71.9964561,21.853063 70.6254842,23.0811975 C69.3871102,24.4892608 69.3871102,26.5843982 70.6254842,27.9924614 Z" id="Shape" fill="#484A54"></path>
                            <path d="M95.5250453,19.39207 C95.8449073,19.39207 95.9964208,19.5607106 95.9964208,19.8811277 L95.9964208,31.972657 C96.0559799,33.6253581 95.3696807,35.2171148 94.1277535,36.3067198 C92.7665321,37.4694098 91.0159602,38.072025 89.2288149,37.9931256 C87.614596,38.0499563 86.0219435,37.6084203 84.6665732,36.7283213 C83.496674,35.9587281 82.6980399,34.7373234 82.4612091,33.3555097 C82.4612091,33.0182286 82.4612091,32.8664521 82.9157498,32.8664521 L85.744003,32.8664521 C85.9892979,32.8748102 86.2068266,33.0266842 86.2995527,33.2543254 C86.4829753,33.7665118 86.8486471,34.1928684 87.326478,34.4516735 C87.9087943,34.7526394 88.5568577,34.9033437 89.2119801,34.890139 C90.0104645,34.9339476 90.7930169,34.6544136 91.3836745,34.1143923 C91.9234267,33.5492581 92.2092562,32.7877542 92.174912,32.0063851 L92.174912,30.9439495 C91.162269,31.6900537 89.9298147,32.0758641 88.6732652,32.0401132 C86.8962302,32.1048465 85.169657,31.4410328 83.8921705,30.201931 C81.3692765,27.5873503 81.3692765,23.4400956 83.8921705,20.8255149 C85.1755916,19.5975715 86.8996274,18.9408144 88.6732652,19.0041967 C89.9661894,18.9699981 91.2317658,19.380685 92.2590862,20.1678166 L92.2590862,19.8979917 C92.2434377,19.7671109 92.2873996,19.6361222 92.3787998,19.5412935 C92.4702,19.4464647 92.5993392,19.3978589 92.7304618,19.4089341 L95.5250453,19.39207 Z M88.9931272,29.038311 C89.8711454,29.065535 90.7159587,28.7010789 91.2995003,28.0433316 C92.4506958,26.5540692 92.4506958,24.4733767 91.2995003,22.9841143 C90.718035,22.3352763 89.8799102,21.9772204 89.009962,22.0059989 C88.122066,21.9780349 87.2666388,22.34176 86.6699192,23.0009783 C86.0498842,23.6935826 85.7237739,24.6010166 85.7608378,25.530587 C85.7304653,26.4510403 86.0492684,27.3488536 86.6530844,28.0433316 C87.2511465,28.700655 88.1056593,29.0639913 88.9931272,29.038311 L88.9931272,29.038311 Z" id="Shape" fill="#484A54"></path>
                            <path d="M111.08551,30.205348 C108.129427,32.5982173 103.872168,32.5982173 100.916085,30.205348 C98.361305,27.5730028 98.361305,23.4221049 100.916085,20.7897597 C103.874529,18.4034134 108.127066,18.4034134 111.08551,20.7897597 C113.638163,23.4164735 113.638163,27.5619103 111.08551,30.1886241 L111.08551,30.205348 Z M103.577085,27.9977856 C104.233403,28.6138536 105.112317,28.9450917 106.017747,28.9176033 C106.917361,28.9406 107.789322,28.609684 108.44146,27.9977856 C109.662379,26.5802167 109.662379,24.4985109 108.44146,23.080942 C107.789322,22.4690435 106.917361,22.1381275 106.017747,22.1611243 C105.112317,22.1336358 104.233403,22.4648739 103.577085,23.080942 C102.356166,24.4985109 102.356166,26.5802167 103.577085,27.9977856 L103.577085,27.9977856 Z" id="Shape" fill="#484A54"></path>
                            <path d="M118.115239,16.5364952 C117.132511,17.3388206 115.664884,17.3388206 114.682156,16.5364952 C114.246767,16.153231 114,15.6195131 114,15.0611026 C114,14.5026921 114.246767,13.9689742 114.682156,13.58571 C115.673383,12.8047633 117.124012,12.8047633 118.115239,13.58571 C118.550627,13.9689742 118.797394,14.5026921 118.797394,15.0611026 C118.797394,15.6195131 118.550627,16.153231 118.115239,16.5364952 L118.115239,16.5364952 Z M118.492698,31.9945861 C117.424239,32.043452 116.368572,31.7604265 115.490997,31.1898265 C114.76023,30.6691826 114.344948,29.8507246 114.376593,28.9935034 L114.376593,19.8728945 C114.35888,19.7395596 114.408074,19.6060554 114.509924,19.5110524 C114.611775,19.4160493 114.754902,19.3701633 114.897847,19.3866855 L117.917522,19.3866855 C118.259033,19.3866855 118.420801,19.5543438 118.420801,19.8728945 L118.420801,27.786364 C118.420801,28.4234653 118.726363,28.742016 119.337488,28.742016 C119.610047,28.7511525 119.882568,28.7229082 120.146329,28.6581869 C120.505814,28.6581869 120.703531,28.7587819 120.721506,29.0605667 L120.991119,31.1562949 C121.017327,31.2799157 120.984898,31.4080666 120.902196,31.5077093 C120.819493,31.607352 120.694608,31.6687358 120.559737,31.6760354 C119.892456,31.8810026 119.195199,31.9884566 118.492698,31.9945861 L118.492698,31.9945861 Z" id="Shape" fill="#484A54"></path>
                            <path d="M131.365678,19.0118341 C133.141731,18.9433448 134.870375,19.5803336 136.156725,20.777289 C138.614425,23.3511679 138.614425,27.3412739 136.156725,29.9151528 C134.876305,31.1229672 133.145107,31.766804 131.365678,31.6969545 C130.111205,31.7241785 128.881906,31.3511061 127.864529,30.6344122 L127.864529,36.5356087 C127.864529,36.8461979 127.69701,36.9933192 127.378724,36.9933192 L124.564403,36.9933192 C124.434037,37.0170903 124.300044,36.9765959 124.206266,36.8850854 C124.112487,36.7935749 124.070989,36.6628222 124.095349,36.5356087 L124.095349,23.1312288 C124.135336,22.8653757 124.044153,22.5967268 123.849444,22.4067262 C123.654735,22.2167257 123.379428,22.1277478 123.106987,22.1667674 L122.554174,22.1667674 C122.185632,22.1667674 122.001361,22.0359929 122.001361,21.7744441 L122.001361,19.8455211 C121.98345,19.5995676 122.143985,19.3748052 122.386655,19.3060766 C122.966121,19.1005285 123.579401,19.0007869 124.195861,19.0118341 C125.453425,18.9032061 126.652815,19.5498279 127.227957,20.6465145 C128.318478,19.5700489 129.814865,18.9788746 131.365678,19.0118341 L131.365678,19.0118341 Z M128.75238,27.7900682 C129.355967,28.405601 130.191098,28.7537248 131.064144,28.7537248 C131.93719,28.7537248 132.772321,28.405601 133.375907,27.7900682 C134.005114,27.1052941 134.335675,26.2079712 134.297263,25.2890071 C134.341118,24.3692361 134.009838,23.4699604 133.375907,22.7879459 C132.772321,22.1724131 131.93719,21.8242893 131.064144,21.8242893 C130.191098,21.8242893 129.355967,22.1724131 128.75238,22.7879459 C128.14284,23.4820073 127.825575,24.3757364 127.864529,25.2890071 C127.830539,26.2015592 128.147196,27.093575 128.75238,27.7900682 Z" id="Shape" fill="#484A54"></path>
                            <path d="M145.240483,31.993228 C143.738571,32.0546577 142.249298,31.6971727 140.94074,30.9611177 C139.877151,30.3237172 139.162914,29.239334 139,28.0146095 C139,27.6816708 139.117114,27.5152014 139.485185,27.5152014 L141.944571,27.5152014 C142.183116,27.5244574 142.396344,27.6658992 142.496678,27.881434 C142.848019,28.7803687 143.768198,29.2298361 145.240483,29.2298361 C145.754026,29.2531945 146.265441,29.150279 146.7295,28.9301912 C147.055847,28.783549 147.274508,28.4699953 147.298337,28.1144912 C147.298337,27.6816708 147.030649,27.3820259 146.495272,27.1822626 C145.860253,26.9719559 145.203749,26.8323781 144.537802,26.7660891 C143.748919,26.6772341 142.966562,26.5382254 142.195529,26.3499157 C141.445714,26.1810429 140.763924,25.7925667 140.238058,25.2345707 C139.612065,24.4679388 139.334072,23.47711 139.470467,22.4987093 C139.606862,21.5203085 140.1454,20.6421748 140.957471,20.0740197 C142.163352,19.3096668 143.578273,18.9373423 145.006256,19.0086156 C146.38881,18.9620967 147.756759,19.3023754 148.954659,19.990785 C149.932349,20.5417839 150.608398,21.5018693 150.795016,22.6043544 C150.795016,22.9372932 150.644441,23.1037626 150.343292,23.1037626 L147.867175,23.1037626 C147.653798,23.1163351 147.454523,22.9973675 147.365259,22.8041177 C147.199807,22.409828 146.888318,22.0939353 146.495272,21.9218299 C146.051888,21.6910056 145.556697,21.5764203 145.056448,21.5888911 C144.566013,21.5623455 144.076801,21.6596991 143.634354,21.8718891 C143.315404,21.9943149 143.103416,22.2975257 143.098977,22.6376483 C143.120911,23.1049646 143.446666,23.5033706 143.902042,23.6198177 C144.544543,23.8607493 145.212468,24.0282924 145.892974,24.1192258 C146.675431,24.2216693 147.451746,24.3661539 148.218516,24.5520462 C148.968331,24.720919 149.650121,25.1093952 150.175986,25.6673912 C150.744174,26.2882882 151.039338,27.1094191 150.995782,27.9480218 C151.025145,29.1186118 150.434326,30.218493 149.439844,30.8445892 C148.189828,31.643039 146.725039,32.0436987 145.240483,31.993228 L145.240483,31.993228 Z" id="Path" fill="#484A54"></path>
                            <path d="M168.994479,31.1845276 C169.013227,31.2988112 168.98379,31.4156137 168.912818,31.5085532 C168.841847,31.6014926 168.735326,31.662729 168.617317,31.6784312 C168.018586,31.8683447 167.394034,31.9703737 166.764301,31.9811463 C165.496726,32.1086754 164.252794,31.5829418 163.484627,30.5950297 C162.326254,31.5626084 160.828549,32.0590696 159.303042,31.9811463 C157.870761,32.0452567 156.477215,31.5187226 155.465824,30.5313002 C154.462208,29.4974509 153.935248,28.1110628 154.006369,26.6915977 L154.006369,20.4620389 C154.006369,20.1593238 154.153954,20 154.465523,20 L157.220449,20 C157.532018,20 157.679604,20.1593238 157.679604,20.4620389 L157.679604,26.2136264 C157.649622,26.9302034 157.901767,27.6309591 158.384734,28.1733086 C158.872407,28.6759866 159.560096,28.9490552 160.270546,28.9221302 C160.996492,28.9529991 161.705009,28.7005922 162.238351,28.2211057 C162.74348,27.7153879 163.010603,27.0290694 162.976277,26.325153 L162.976277,20.4620389 C162.976277,20.1593238 163.123863,20 163.435432,20 L166.223155,20 C166.534724,20 166.682309,20.1593238 166.682309,20.4620389 L166.682309,27.9661877 C166.682309,28.5875504 166.961081,28.8902655 167.502228,28.8902655 C167.75633,28.8998208 168.010497,28.8729791 168.256553,28.8106036 C168.382149,28.7763825 168.516958,28.7999041 168.62245,28.8744457 C168.727943,28.9489874 168.79251,29.0663464 168.797699,29.1929806 L168.994479,31.1845276 Z" id="Path" fill="#484A54"></path>
                            <path d="M195.987412,31.1575547 C196.018129,31.2788608 195.991976,31.4072977 195.916117,31.5076841 C195.840257,31.6080705 195.722643,31.669883 195.595491,31.6761901 C194.96232,31.8784229 194.301666,31.9855896 193.635889,31.9940635 C192.622664,32.0453905 191.621036,31.7627323 190.790206,31.191015 C190.060599,30.6936224 189.632236,29.8713065 189.648525,28.9993619 L189.648525,25.0677705 C189.684388,24.3175453 189.428564,23.5819685 188.932844,23.0099588 C188.448719,22.4804715 187.748358,22.191914 187.024362,22.2236405 C186.371429,22.1994208 185.743297,22.4707733 185.32036,22.9597683 C184.870559,23.5203852 184.640773,24.2209561 184.67284,24.9339291 L184.67284,31.1073641 C184.67284,31.4252375 184.519479,31.5925392 184.195719,31.5925392 L181.315956,31.5925392 C181.180441,31.6090264 181.044753,31.5632379 180.948196,31.4684368 C180.85164,31.3736358 180.805003,31.2404155 180.821796,31.1073641 L180.821796,25.0677705 C180.858996,24.3257562 180.623118,23.5953591 180.157235,23.0099588 C179.736593,22.5121033 179.112069,22.2239142 178.453233,22.2236405 C177.750177,22.1957824 177.068372,22.4635452 176.578831,22.9597683 C176.091429,23.5024926 175.840549,24.2114093 175.88019,24.9339291 L175.88019,31.1073641 C175.896983,31.2404155 175.850346,31.3736358 175.75379,31.4684368 C175.657233,31.5632379 175.521545,31.6090264 175.38603,31.5925392 L172.608507,31.5925392 C172.284747,31.5925392 172.131386,31.4252375 172.131386,31.1073641 L172.131386,23.2274511 C172.172061,22.955363 172.07931,22.6804137 171.881252,22.4859572 C171.683194,22.2915006 171.403152,22.200436 171.126025,22.2403707 L170.563705,22.2403707 C170.188824,22.2403707 170.001384,22.1065293 170.001384,21.8388465 L170.001384,19.8646856 C169.983165,19.6129639 170.146461,19.3829303 170.393305,19.3125898 C170.982736,19.1022212 171.606565,19.0001404 172.233626,19.0114467 C173.462103,18.9086991 174.64162,19.5072522 175.26675,20.5506229 C176.428845,19.4691922 177.997003,18.9115258 179.594914,19.0114467 C181.152021,18.936812 182.652075,19.5955228 183.633399,20.7848453 C184.775382,19.5662792 186.414151,18.9153214 188.097883,19.0114467 C189.601617,18.9423651 191.066145,19.4944693 192.136367,20.5338927 C193.182698,21.6174115 193.730841,23.0747191 193.652929,24.5658652 L193.652929,27.7947892 C193.652929,28.4305359 193.942609,28.7484093 194.48789,28.7484093 C194.752004,28.7604978 195.01643,28.7322785 195.271731,28.6647584 C195.623891,28.6647584 195.811331,28.7985998 195.834051,29.0662826 L195.987412,31.1575547 Z" id="Path" fill="#484A54"></path>
                            <path d="M0.688572472,17.1505188 C3.23810557,7.07353316 12.4401958,0 23,0 C33.5598042,0 42.7618944,7.07353316 45.3114275,17.1505188 L43.2960935,17.1505188 C39.8963636,17.1012855 36.5663348,18.1004286 33.77364,20.0076394 C33.6124673,20.1223971 33.4441985,20.227195 33.2698065,20.3214272 L33.0346842,20.3214272 C32.8602922,20.227195 32.6920234,20.1223971 32.5308507,20.0076394 C26.767842,16.1967983 19.232158,16.1967983 13.4691493,20.0076394 C13.3079766,20.1223971 13.1397078,20.227195 12.9653158,20.3214272 L12.7301935,20.3214272 C12.5558015,20.227195 12.3875327,20.1223971 12.22636,20.0076394 C9.43366525,18.1004286 6.1036364,17.1012855 2.70390654,17.1505188 L0.688572472,17.1505188 Z M39.6684922,27.5055165 C40.7030496,26.7132154 41.9852717,26.2987536 43.2960935,26.332941 L46,26.332941 L46,21.0315786 L43.2960935,21.0315786 C40.9872413,21.0041086 38.7311341,21.7108124 36.8638189,23.0464266 C34.7068299,24.6101988 31.7656053,24.6101988 29.6086163,23.0464266 C25.6871467,20.3620095 20.4807978,20.3620095 16.5593282,23.0464266 C14.4023392,24.6101988 11.4611146,24.6101988 9.30412559,23.0464266 C7.41374032,21.6937208 5.12532362,20.9861338 2.78787879,21.0315786 L0,21.0315786 L0,26.332941 L2.70390654,26.332941 C4.01472826,26.2987536 5.29695042,26.7132154 6.33150785,27.5055165 C10.2461984,30.1919014 15.4493109,30.1919014 19.3640015,27.5055165 C20.39988,26.7156564 21.6811903,26.3014893 22.9916028,26.332941 C24.3028362,26.2959811 25.585988,26.7107434 26.6192041,27.5055165 C30.5406737,30.1899336 35.7470226,30.1899336 39.6684922,27.5055165 L39.6684922,27.5055165 Z M39.6684922,36.9852114 C40.7030496,36.1929103 41.9852717,35.7784484 43.2960935,35.8126359 L46,35.8126359 L46,30.5112734 L43.2960935,30.5112734 C40.9872413,30.4838034 38.7311341,31.1905073 36.8638189,32.5261215 C34.7068299,34.0898937 31.7656053,34.0898937 29.6086163,32.5261215 C25.6871467,29.8417044 20.4807978,29.8417044 16.5593282,32.5261215 C14.4023392,34.0898937 11.4611146,34.0898937 9.30412559,32.5261215 C7.41374032,31.1734157 5.12532362,30.4658286 2.78787879,30.5112734 L0,30.5112734 L0,35.8126359 L2.70390654,35.8126359 C4.01472826,35.7784484 5.29695042,36.1929103 6.33150785,36.9852114 C10.2461984,39.6715962 15.4493109,39.6715962 19.3640015,36.9852114 C20.39988,36.1953513 21.6811903,35.7811842 22.9916028,35.8126359 C24.3028362,35.7756759 25.585988,36.1904383 26.6192041,36.9852114 C30.5406737,39.6696285 35.7470226,39.6696285 39.6684922,36.9852114 L39.6684922,36.9852114 Z" id="Shape" fill="#4399C6"></path>
                        </g>
                    </g>
                </g>
            </g>
        </g>
    </g>
</svg>