<?xml version="1.0" encoding="UTF-8"?>
<svg width="32px" height="32px" viewBox="0 0 32 32" version="1.1" xmlns="http://www.w3.org/2000/svg" xmlns:xlink="http://www.w3.org/1999/xlink">
    <!-- Generator: sketchtool 60.1 (101010) - https://sketch.com -->
    <title>76B25D8E-F4A0-40D8-A3CE-59167561A1CD</title>
    <desc>Created with sketchtool.</desc>
    <g id="Asset-Artboard-Page" stroke="none" stroke-width="1" fill="none" fill-rule="evenodd">
        <g id="Icon/Social/Facebook-Copy-3-Icon/Social/Twitter/Black" fill="#484A54">
            <g id="Logo/Social/twitter" transform="translate(6.400000, 8.000000)">
                <g id="Color/black">
                    <path d="M0,13.817849 C1.74316342,14.9343031 3.81395756,15.5858826 6.03806607,15.5858826 C13.3517917,15.5858826 17.4832991,9.41580641 17.2346357,3.88136642 C18.0041479,3.32754481 18.6720105,2.63442868 19.2,1.84439377 C18.4930737,2.15738689 17.7340626,2.36926561 16.9380879,2.46366702 C17.7504441,1.97781443 18.3754627,1.2066598 18.6690702,0.286980286 C17.9079589,0.738428807 17.0649398,1.06568703 16.1685758,1.24274212 C15.4498884,0.477880915 14.4258324,0 13.2925662,0 C10.7504879,0 8.88173266,2.37010473 9.45592649,4.83125438 C6.18171954,4.66720571 3.27966747,3.10098143 1.33698534,0.719968087 C0.304948589,2.48884073 0.801855174,4.80272418 2.55593962,5.97330166 C1.90991905,5.95316269 1.30212207,5.77568804 0.771192299,5.48073608 C0.728768322,7.30415176 2.03635091,9.00883144 3.93072851,9.38895446 C3.37627653,9.53999671 2.76889958,9.57398122 2.15270182,9.45608435 C2.65254868,11.0202108 4.10756508,12.1568038 5.83182673,12.1886905 C4.1760315,13.4855561 2.09011595,14.0645514 0,13.817849" id="Mask"></path>
                </g>
            </g>
        </g>
    </g>
</svg>